<svg width="25" height="26" viewBox="0 0 25 26" fill="none" xmlns="http://www.w3.org/2000/svg">
<mask id="mask0_430102_3" style="mask-type:luminance" maskUnits="userSpaceOnUse" x="0" y="0" width="85" height="26">
<path d="M85 0H0V25.3518H85V0Z" fill="white"/>
</mask>
<g mask="url(#mask0_430102_3)">
<path d="M44.7975 6.36977C44.7975 7.28343 44.0274 8.01913 43.0716 8.01913C42.1159 8.01913 41.3463 7.28343 41.3463 6.36977C41.3463 5.45611 42.0896 4.72042 43.0716 4.72042C44.0544 4.74577 44.7975 5.48172 44.7975 6.36977ZM37.6829 9.69434V10.1005C37.6829 10.1005 36.8603 9.08489 35.1081 9.08489C32.2148 9.08489 29.958 11.1913 29.958 14.1095C29.958 17.0026 32.1883 19.1341 35.1081 19.1341C36.8868 19.1341 37.6829 18.0937 37.6829 18.0937V18.525C37.6829 18.728 37.8425 18.8799 38.0546 18.8799H40.2046V9.3379H38.0546C37.8425 9.33867 37.6829 9.51663 37.6829 9.69434ZM37.6829 15.8098C37.2851 16.3683 36.4884 16.8505 35.5329 16.8505C33.8341 16.8505 32.5331 15.8354 32.5331 14.1095C32.5331 12.3839 33.8341 11.3688 35.5329 11.3688C36.4622 11.3688 37.3116 11.8763 37.6829 12.4092V15.8098ZM41.7976 9.33866H44.3459V18.8806H41.7976V9.33866ZM79.8651 9.08465C78.1128 9.08465 77.2897 10.1002 77.2897 10.1002V4.74577H74.7414V18.8806H76.8919C77.1044 18.8806 77.2631 18.7029 77.2631 18.5252V18.094C77.2631 18.094 78.0864 19.1344 79.838 19.1344C82.7317 19.1344 84.988 17.0034 84.988 14.1103C84.988 11.2172 82.7317 9.08465 79.8651 9.08465ZM79.4402 16.8249C78.4576 16.8249 77.688 16.3432 77.2897 15.7845V12.3839C77.688 11.8763 78.5374 11.3434 79.4402 11.3434C81.139 11.3434 82.4398 12.3585 82.4398 14.0842C82.4398 15.8098 81.1393 16.8249 79.4402 16.8249ZM73.4144 13.2217V18.906H70.8656V13.5006C70.8656 11.9275 70.3347 11.2927 68.9022 11.2927C68.1326 11.2927 67.3359 11.6735 66.8306 12.232V18.8809H64.2829V9.33892H66.2997C66.5122 9.33892 66.6716 9.51663 66.6716 9.69434V10.1005C67.4149 9.36427 68.3969 9.08489 69.379 9.08489C70.4941 9.08489 71.4233 9.38987 72.1667 9.99881C73.0689 10.7094 73.4144 11.6228 73.4144 13.2217ZM58.0968 9.08465C56.3452 9.08465 55.522 10.1002 55.522 10.1002V4.74577H52.9737V18.8806H55.1237C55.3361 18.8806 55.4955 18.7029 55.4955 18.5252V18.094C55.4955 18.094 56.3187 19.1344 58.0703 19.1344C60.9641 19.1344 63.2204 17.0034 63.2204 14.1103C63.2468 11.2169 60.9906 9.08465 58.0968 9.08465ZM57.6719 16.8249C56.6899 16.8249 55.9203 16.3432 55.522 15.7845V12.3839C55.9203 11.8763 56.7698 11.3434 57.6719 11.3434C59.3713 11.3434 60.6719 12.3585 60.6719 14.0842C60.6719 15.8098 59.3713 16.8249 57.6719 16.8249ZM50.7703 9.08465C51.5398 9.08465 51.9381 9.21191 51.9381 9.21191V11.4702C51.9381 11.4702 49.8145 10.7849 48.4874 12.2317V18.9057H45.9387V9.33866H48.0891C48.3015 9.33866 48.4604 9.51638 48.4604 9.69409V10.1002C48.9388 9.56708 49.9742 9.08465 50.7703 9.08465ZM24.304 18.0177C24.1715 17.7132 24.0386 17.3834 23.906 17.104C23.6933 16.6474 23.4809 16.2157 23.2956 15.8098L23.269 15.7845C21.437 11.9777 19.473 8.12079 17.4021 4.31455L17.3226 4.16193C17.1047 3.76707 16.8925 3.36945 16.6858 2.96915C16.42 2.51207 16.1549 2.03039 15.7301 1.57331C14.8806 0.558245 13.6594 -0.000244141 12.3589 -0.000244141C11.0314 -0.000244141 9.83688 0.558248 8.9612 1.52236C8.56288 1.97893 8.27064 2.46112 8.00544 2.9182C7.79827 3.31825 7.58601 3.71586 7.36871 4.11098L7.28889 4.26359C5.24477 8.06983 3.25395 11.927 1.42225 15.7335L1.39546 15.784C1.20983 16.1906 0.997144 16.6218 0.784723 17.0782C0.652125 17.3575 0.519527 17.662 0.38693 17.9918C0.0416465 18.9306 -0.0647016 19.8189 0.0684261 20.7328C0.360405 22.6362 1.68744 24.2343 3.51941 24.9454C4.20971 25.2248 4.92653 25.3515 5.66961 25.3515C5.88203 25.3515 6.14723 25.3262 6.35992 25.3006C7.23612 25.1992 8.13858 24.9203 9.01478 24.4381C10.1031 23.8543 11.1384 23.0172 12.3063 21.7991C13.4743 23.0172 14.5361 23.8543 15.5979 24.4381C16.4745 24.9203 17.3767 25.1992 18.2526 25.3006C18.465 25.3264 18.7307 25.3515 18.9431 25.3515C19.6864 25.3515 20.4296 25.2248 21.0931 24.9454C22.9516 24.2343 24.2521 22.6108 24.5443 20.7328C24.7551 19.8447 24.6491 18.9569 24.304 18.0177ZM12.3321 19.3372C10.8985 17.6115 9.96921 15.9875 9.65097 14.6176C9.51838 14.0337 9.4916 13.5262 9.57143 13.0694C9.6242 12.6632 9.78384 12.3078 9.99626 12.0033C10.5006 11.3186 11.3501 10.8869 12.3324 10.8869C13.3149 10.8869 14.1908 11.293 14.6688 12.0033C14.8812 12.3078 15.0403 12.6635 15.0939 13.0694C15.1731 13.5264 15.1466 14.0591 15.0141 14.6176C14.6945 15.9622 13.7652 17.5864 12.3321 19.3372ZM22.9234 20.53C22.7378 21.8495 21.8085 22.9918 20.508 23.4994C19.871 23.7529 19.1805 23.8292 18.4907 23.7529C17.8272 23.6766 17.1632 23.4735 16.4734 23.0932C15.5176 22.5852 14.5621 21.7991 13.447 20.6314C15.1988 18.5762 16.2607 16.6979 16.659 15.0234C16.8449 14.2365 16.8717 13.5262 16.7916 12.866C16.6858 12.2318 16.4466 11.6479 16.0751 11.1404C15.2516 9.99805 13.871 9.33866 12.3318 9.33866C10.7927 9.33866 9.41204 10.0239 8.58914 11.1404C8.2176 11.6479 7.97839 12.2318 7.87231 12.866C7.76624 13.5262 7.79249 14.2619 8.00491 15.0234C8.40297 16.6979 9.49134 18.6013 11.2166 20.6567C10.1283 21.8242 9.14604 22.6111 8.19028 23.1186C7.49998 23.4994 6.83673 23.7024 6.17321 23.7782C5.45666 23.8546 4.76609 23.7529 4.15561 23.5247C2.8551 23.0172 1.92586 21.8749 1.74022 20.5553C1.66066 19.921 1.71343 19.2868 1.97916 18.5762C2.05846 18.3221 2.19158 18.0686 2.32418 17.7642C2.51008 17.358 2.72197 16.9263 2.93466 16.4951L2.96145 16.4446C4.79288 12.6632 6.75717 8.80603 8.8013 5.05049L8.88086 4.89788C9.09354 4.51761 9.30596 4.11148 9.51812 3.73071C9.73054 3.32458 9.96921 2.9438 10.2615 2.61373C10.8189 2.0053 11.562 1.67497 12.3851 1.67497C13.2083 1.67497 13.9514 2.0053 14.5089 2.61373C14.8011 2.94456 15.0398 3.32534 15.2521 3.73071C15.4649 4.11148 15.6773 4.51761 15.8891 4.89788L15.9689 5.05049C17.9819 8.82163 19.9201 12.6288 21.7826 16.47V16.4953C21.9953 16.902 22.1809 17.3583 22.3933 17.7649C22.5259 18.0689 22.6587 18.3224 22.7383 18.5764C22.9503 19.2356 23.0297 19.8703 22.9234 20.53Z" fill="#FF5A5F"/>
</g>
</svg>
